<?xml version="1.0" encoding="UTF-8"?>
<svg id="Layer_2" data-name="Layer 2" xmlns="http://www.w3.org/2000/svg" viewBox="0 0 206.36 20.69" >
  <g id="Layer_1-2" data-name="Layer 1">
    <g>
      <g>
        <g>
          <path fill='#fff' stroke-width='0px' d="M20.46,10.04c.07,2.22-.59,4.47-2,6.34-.22.31-.47.61-.73.89-.23.25-.47.48-.72.7-.17.14-.33.28-.51.41-3.71,2.85-8.99,2.79-12.65-.3-.14-.11-.28-.23-.41-.36-.07-.06-.14-.13-.2-.2-.57-.56-1.06-1.17-1.46-1.82-.42-.68-.75-1.38-.98-2.12-.07-.17-.13-.34-.17-.53-.03-.1-.05-.19-.07-.29,0-.01,0-.03-.01-.04-.17-.67-.26-1.35-.29-2.04-.08-2.59.83-5.21,2.74-7.24C4.91,1.41,7.47.34,10.04.26c2.58-.08,5.19.82,7.23,2.73,2.03,1.91,3.09,4.46,3.18,7.05Z" />
          <path fill='#231f20' stroke-width='0px' d="M10.37,20.69c-2.39,0-4.77-.81-6.68-2.43-.14-.11-.29-.24-.43-.37-.07-.05-.14-.13-.21-.21-.57-.56-1.08-1.19-1.48-1.85-.45-.72-.77-1.43-1.01-2.18-.05-.12-.13-.32-.18-.55-.03-.09-.05-.18-.07-.29v-.03c-.17-.66-.27-1.35-.3-2.09-.09-2.77.91-5.41,2.81-7.42C4.71,1.25,7.28.09,10.04,0c2.76-.09,5.39.91,7.41,2.8,2.01,1.89,3.16,4.45,3.26,7.22h0c.07,2.34-.65,4.65-2.05,6.5-.21.3-.46.6-.75.91-.22.24-.46.48-.74.72l-.13.11c-.13.11-.26.22-.4.32-1.84,1.41-4.06,2.11-6.27,2.11ZM.77,12.59l.02.02v.14s.04.13.07.22c.04.17.08.32.16.51.23.72.54,1.4.96,2.08.39.63.87,1.23,1.42,1.77.07.08.13.14.19.19.14.14.27.25.4.35,3.52,2.97,8.71,3.09,12.34.3.14-.1.26-.2.38-.3l.12-.1c.25-.22.48-.45.7-.68.27-.29.51-.58.71-.87,1.33-1.77,2.02-3.96,1.95-6.19-.09-2.64-1.19-5.08-3.1-6.88-1.92-1.8-4.43-2.76-7.05-2.66-2.63.08-5.07,1.18-6.88,3.1C1.37,5.53.42,8.03.51,10.67c.03.68.12,1.31.27,1.92Z"/>
        </g>
        <g>
          <path fill='#231f20' stroke-width='0px' d="M20.24,10.85c.03.18.04.37.04.56,0,.21-.02.41-.06.62-.14.8-.26,1.66-.86,2.33-.04-3.02-4.19-5.6-9.03-5.69-.88-.01-1.72.05-2.52.18-3.56.61-6.44,2.97-6.65,5.37-.64-.83-.75-2.18-.74-3.16.04-2.12,1.77-3.96,4.37-5.04,1.62-.66,3.56-1.04,5.65-1,5.18.09,9.39,2.65,9.79,5.82Z"/>
          <path fill='#231f20' stroke-width='0px' d="M19.12,15.02v-.65c-.05-2.87-4.07-5.36-8.79-5.44-.83-.01-1.66.05-2.47.18-3.41.58-6.24,2.84-6.44,5.15l-.06.64-.39-.51c-.54-.7-.81-1.82-.79-3.32.04-2.14,1.73-4.11,4.53-5.27,1.72-.7,3.71-1.06,5.75-1.02,5.3.1,9.61,2.69,10.03,6.03.04.21.04.43.04.6,0,.26-.03.46-.06.66l-.03.15c-.13.76-.28,1.62-.89,2.31l-.43.49ZM10.11,8.43c.08,0,.15,0,.23,0,4.61.08,8.59,2.41,9.19,5.23.23-.47.32-1,.42-1.52l.03-.15c.03-.2.05-.39.05-.59,0-.14,0-.34-.03-.51h0c-.38-3.07-4.58-5.53-9.54-5.62-1.99-.04-3.9.3-5.56.98C2.28,7.34.7,9.14.67,11.07c-.01,1.02.11,1.85.37,2.45.65-2.27,3.44-4.35,6.73-4.91.77-.12,1.55-.19,2.33-.19Z"/>
        </g>
      </g>
      <g>
        <path fill='#231f20' stroke-width='0px' d="M18.46,16.38c-.22.31-.47.61-.73.89-.23.25-.47.48-.72.7-.17.14-.33.28-.51.41-3.71,2.85-8.99,2.79-12.65-.3-.14-.11-.28-.23-.41-.36-.07-.06-.14-.13-.2-.2-.57-.56-1.06-1.17-1.46-1.82,1.73-1.97,4.82-3.24,8.3-3.16,3.65.09,6.81,1.64,8.38,3.84Z"/>
        <path fill='#231f20' stroke-width='0px' d="M10.37,20.69c-2.39,0-4.77-.81-6.68-2.43-.14-.11-.29-.24-.43-.37-.07-.05-.14-.13-.21-.21-.57-.56-1.08-1.19-1.48-1.85l-.1-.16.12-.14c1.85-2.11,5.03-3.33,8.49-3.25,3.62.09,6.9,1.6,8.58,3.94l.1.14-.1.15c-.21.3-.47.61-.75.92-.22.24-.46.48-.74.72l-.13.11c-.13.11-.26.22-.4.32-1.84,1.41-4.06,2.11-6.27,2.11ZM2.09,15.72c.37.57.81,1.11,1.32,1.61.07.08.13.14.19.19.14.14.27.25.4.35,3.52,2.97,8.71,3.09,12.34.3.14-.1.26-.2.38-.3l.12-.1c.25-.22.48-.45.7-.68.22-.24.43-.48.6-.72-1.62-2.14-4.69-3.51-8.08-3.59-3.19-.08-6.23,1.05-7.98,2.94Z"/>
      </g>
      <g>
        <path fill='#fff' stroke-width='0px' d="M16.5,18.38c-3.71,2.85-8.99,2.79-12.65-.3,1.67-1,3.84-1.6,6.19-1.58,2.49.02,4.76.73,6.46,1.88Z"/>
        <path fill='#231f20' stroke-width='0px' d="M10.36,20.69c-2.39,0-4.77-.81-6.68-2.43l-.27-.23.3-.18c1.77-1.06,4.03-1.63,6.32-1.62,2.45.02,4.79.7,6.6,1.92l.29.19-.27.21c-1.84,1.42-4.06,2.12-6.28,2.12ZM4.29,18.11c3.41,2.67,8.25,2.78,11.77.28-1.68-1.04-3.8-1.63-6.02-1.64-2.07-.04-4.1.47-5.75,1.37Z"/>
      </g>
    </g>
    <g>
      <path fill='#231f20' stroke-width='0px' d="M37.12,7.06c0,1.81-1.15,3.11-2.56,3.51,1.51.21,2.16.99,2.31,2.56l.4,4.35h-2.29l-.34-4.05c-.13-1.34-.97-1.76-3-1.76h-3.36v5.82h-2.27V2.57h5.94c3.11,0,5.17,1.7,5.17,4.49ZM31.81,9.58c1.89,0,2.96-.86,2.96-2.46s-1.05-2.48-2.96-2.48h-3.53v4.93h3.53Z"/>
      <path fill='#231f20' stroke-width='0px' d="M44.07,6.1c2.67,0,4.91,1.78,5.02,5.73l.02.71h-8c.15,2.08,1.22,3.3,2.96,3.3,1.09,0,2.1-.65,2.54-1.72l2.33.17c-.65,2.12-2.6,3.44-4.87,3.44-3.23,0-5.31-2.29-5.31-5.82s2.08-5.82,5.31-5.82ZM46.76,10.88c-.25-2.12-1.43-2.9-2.69-2.9-1.62,0-2.67,1.07-2.92,2.9h5.61Z"/>
      <path fill='#231f20' stroke-width='0px' d="M53.21,6.35l.04,1.83c.55-1.32,1.68-2.08,3.17-2.08,1.6,0,2.75.84,3.23,2.31.5-1.49,1.66-2.31,3.34-2.31,2.25,0,3.59,1.51,3.59,4.22v7.16h-2.23v-6.47c0-1.97-.69-3.04-1.95-3.04-1.6,0-2.48,1.11-2.48,3.04v6.47h-2.1v-6.47c0-1.93-.71-3.04-1.95-3.04-1.57,0-2.48,1.11-2.48,3.04v6.47h-2.23V6.35h2.04Z"/>
      <path fill='#231f20' stroke-width='0px' d="M68.5,11.91c0-3.55,2.1-5.82,5.31-5.82s5.29,2.27,5.29,5.82-2.1,5.82-5.29,5.82-5.31-2.27-5.31-5.82ZM73.81,15.8c1.89,0,2.98-1.45,2.98-3.88s-1.09-3.88-2.98-3.88-3,1.45-3,3.88,1.11,3.88,3,3.88Z"/>
      <path fill='#231f20' stroke-width='0px' d="M84.08,3.83v2.52h2.94v1.81h-2.94v6.13c0,.9.44,1.36,1.3,1.36h1.62v1.83h-1.85c-2.14,0-3.3-1.11-3.3-3.19v-6.13h-1.7v-1.81h1.7v-2.52h2.23Z"/>
      <path fill='#231f20' stroke-width='0px' d="M93.38,6.1c2.67,0,4.91,1.78,5.02,5.73l.02.71h-8c.15,2.08,1.22,3.3,2.96,3.3,1.09,0,2.1-.65,2.54-1.72l2.33.17c-.65,2.12-2.6,3.44-4.87,3.44-3.23,0-5.31-2.29-5.31-5.82s2.08-5.82,5.31-5.82ZM96.07,10.88c-.25-2.12-1.43-2.9-2.69-2.9-1.62,0-2.67,1.07-2.92,2.9h5.61Z"/>
      <path fill='#231f20' stroke-width='0px' d="M106.72,2.57l2.9,11.78,2.88-11.78h2.31l2.92,11.78,2.88-11.78h2.44l-3.95,14.91h-2.67l-2.77-10.62-2.77,10.62h-2.62l-3.97-14.91h2.44Z"/>
      <path fill='#231f20' stroke-width='0px' d="M123.05,11.91c0-3.55,2.1-5.82,5.31-5.82s5.29,2.27,5.29,5.82-2.1,5.82-5.29,5.82-5.31-2.27-5.31-5.82ZM128.37,15.8c1.89,0,2.98-1.45,2.98-3.88s-1.09-3.88-2.98-3.88-3,1.45-3,3.88,1.11,3.88,3,3.88Z"/>
      <path fill='#231f20' stroke-width='0px' d="M137.75,6.35l.06,2.1c.4-1.43,1.24-2.1,2.67-2.1h1.07v1.83h-1.09c-1.74,0-2.52.97-2.52,2.81v6.49h-2.23V6.35h2.04Z"/>
      <path fill='#231f20' stroke-width='0px' d="M145.97,2.57v12.32c0,.5.27.76.76.76h.9v1.83h-1.39c-1.49,0-2.5-.97-2.5-2.48V2.57h2.23Z"/>
      <path fill='#231f20' stroke-width='0px' d="M159.17,17.47h-2.08l-.06-1.6c-.63,1.13-1.93,1.85-3.46,1.85-2.9,0-4.7-2.25-4.7-5.82s1.81-5.82,4.7-5.82c1.45,0,2.75.67,3.38,1.74V2.57h2.23v14.91ZM154.13,15.82c1.83,0,2.98-1.51,2.98-3.91s-1.15-3.97-2.98-3.97-2.96,1.53-2.96,3.97,1.18,3.91,2.96,3.91Z"/>
      <path fill='#231f20' stroke-width='0px' d="M172.65,14.96l2.48-8.61h2.27l-3.44,11.13h-2.48l-2.35-7.98-2.33,7.98h-2.48l-3.42-11.13h2.25l2.46,8.61,2.48-8.61h2.1l2.48,8.61Z"/>
      <path fill='#231f20' stroke-width='0px' d="M179.06,2.59h2.33v2.12h-2.33v-2.12ZM181.33,6.35v11.13h-2.23V6.35h2.23Z"/>
      <path fill='#231f20' stroke-width='0px' d="M193.84,17.47h-2.08l-.06-1.6c-.63,1.13-1.93,1.85-3.46,1.85-2.9,0-4.7-2.25-4.7-5.82s1.81-5.82,4.7-5.82c1.45,0,2.75.67,3.38,1.74V2.57h2.23v14.91ZM188.8,15.82c1.83,0,2.98-1.51,2.98-3.91s-1.15-3.97-2.98-3.97-2.96,1.53-2.96,3.97,1.18,3.91,2.96,3.91Z"/>
      <path fill='#231f20' stroke-width='0px' d="M201.32,6.1c2.67,0,4.91,1.78,5.02,5.73l.02.71h-8c.15,2.08,1.22,3.3,2.96,3.3,1.09,0,2.1-.65,2.54-1.72l2.33.17c-.65,2.12-2.6,3.44-4.87,3.44-3.23,0-5.31-2.29-5.31-5.82s2.08-5.82,5.31-5.82ZM204.01,10.88c-.25-2.12-1.43-2.9-2.69-2.9-1.62,0-2.67,1.07-2.92,2.9h5.61Z"/>
    </g>
  </g>
</svg>