<?xml version="1.0" encoding="UTF-8"?>
<svg id="Layer_2" data-name="Layer 2" xmlns="http://www.w3.org/2000/svg" viewBox="0 0 20.71 20.7">
  <defs>
    <style>
      .cls-1 {
        fill: #fff;
      }

      .cls-1, .cls-2 {
        stroke: #231f20;
        stroke-miterlimit: 10;
        stroke-width: .5px;
      }

      .cls-2 {
        fill: #231f20;
      }
    </style>
  </defs>
  <g id="Layer_1-2" data-name="Layer 1">
    <g>
      <g>
        <path class="cls-1" d="M20.45,10.03c.07,2.22-.59,4.47-2,6.34-.22.31-.47.61-.73.89-.23.25-.47.48-.72.7-.17.14-.33.28-.51.41-3.71,2.85-8.99,2.79-12.65-.3-.14-.11-.28-.23-.41-.36-.07-.06-.14-.13-.2-.2-.57-.56-1.06-1.17-1.46-1.82-.42-.68-.75-1.38-.98-2.12-.07-.17-.13-.34-.17-.53-.03-.1-.05-.19-.07-.29,0-.01,0-.03-.01-.04-.17-.67-.26-1.35-.29-2.04-.08-2.59.83-5.21,2.74-7.24C4.9,1.4,7.46.33,10.04.25c2.58-.08,5.19.82,7.23,2.73,2.03,1.91,3.09,4.46,3.18,7.05Z"/>
        <path class="cls-2" d="M20.24,10.85c.03.18.04.37.04.56,0,.21-.02.41-.06.62-.14.8-.26,1.66-.86,2.33-.04-3.02-4.19-5.6-9.03-5.69-.88-.01-1.72.05-2.52.18-3.56.61-6.44,2.97-6.65,5.37-.64-.83-.75-2.18-.74-3.16.04-2.12,1.77-3.96,4.37-5.04,1.62-.66,3.56-1.04,5.65-1,5.18.09,9.39,2.65,9.79,5.82Z"/>
      </g>
      <path class="cls-2" d="M18.45,16.37c-.22.31-.47.61-.73.89-.23.25-.47.48-.72.7-.17.14-.33.28-.51.41-3.71,2.85-8.99,2.79-12.65-.3-.14-.11-.28-.23-.41-.36-.07-.06-.14-.13-.2-.2-.57-.56-1.06-1.17-1.46-1.82,1.73-1.97,4.82-3.24,8.3-3.16,3.65.09,6.81,1.64,8.38,3.84Z"/>
      <path class="cls-1" d="M16.49,18.37c-3.71,2.85-8.99,2.79-12.65-.3,1.67-1,3.84-1.6,6.19-1.58,2.49.02,4.76.73,6.46,1.88Z"/>
    </g>
  </g>
</svg>