<?xml version="1.0" encoding="UTF-8"?>
<svg id="Layer_2" data-name="Layer 2" xmlns="http://www.w3.org/2000/svg" viewBox="0 0 206.65 22.68">
  <defs>
    <style>
      .cls-1 {
        font-family: Geist-Medium, Geist;
        font-size: 21px;
        font-weight: 500;
      }

      .cls-1, .cls-2 {
        fill: #231f20;
      }

      .cls-3 {
        fill: #fff;
      }

      .cls-3, .cls-2 {
        stroke: #231f20;
        stroke-miterlimit: 10;
        stroke-width: .5px;
      }

      .cls-4 {
        letter-spacing: -.02em;
      }

      .cls-5 {
        letter-spacing: -.03em;
      }

      .cls-6 {
        letter-spacing: -.02em;
      }

      .cls-7 {
        letter-spacing: -.02em;
      }

      .cls-8 {
        letter-spacing: -.03em;
      }

      .cls-9 {
        letter-spacing: -.07em;
      }

      .cls-10 {
        letter-spacing: -.05em;
      }

      .cls-11 {
        letter-spacing: -.03em;
      }

      .cls-12 {
        letter-spacing: -.02em;
      }

      .cls-13 {
        letter-spacing: -.03em;
      }

      .cls-14 {
        letter-spacing: -.02em;
      }

      .cls-15 {
        letter-spacing: -.02em;
      }
    </style>
  </defs>
  <g id="Layer_1-2" data-name="Layer 1">
    <g>
      <g>
        <path class="cls-3" d="M20.45,10.52c.07,2.22-.59,4.47-2,6.34-.22.31-.47.61-.73.89-.23.25-.47.48-.72.7-.17.14-.33.28-.51.41-3.71,2.85-8.99,2.79-12.65-.3-.14-.11-.28-.23-.41-.36-.07-.06-.14-.13-.2-.2-.57-.56-1.06-1.17-1.46-1.82-.42-.68-.75-1.38-.98-2.12-.07-.17-.13-.34-.17-.53-.03-.1-.05-.19-.07-.29,0-.01,0-.03-.01-.04-.17-.67-.26-1.35-.29-2.04-.08-2.59.83-5.21,2.74-7.24C4.9,1.89,7.46.82,10.04.74c2.58-.08,5.19.82,7.23,2.73,2.03,1.91,3.09,4.46,3.18,7.05Z"/>
        <path class="cls-2" d="M20.24,11.33c.03.18.04.37.04.56,0,.21-.02.41-.06.62-.14.8-.26,1.66-.86,2.33-.04-3.02-4.19-5.6-9.03-5.69-.88-.01-1.72.05-2.52.18-3.56.61-6.44,2.97-6.65,5.37-.64-.83-.75-2.18-.74-3.16.04-2.12,1.77-3.96,4.37-5.04,1.62-.66,3.56-1.04,5.65-1,5.18.09,9.39,2.65,9.79,5.82Z"/>
      </g>
      <path class="cls-2" d="M18.45,16.86c-.22.31-.47.61-.73.89-.23.25-.47.48-.72.7-.17.14-.33.28-.51.41-3.71,2.85-8.99,2.79-12.65-.3-.14-.11-.28-.23-.41-.36-.07-.06-.14-.13-.2-.2-.57-.56-1.06-1.17-1.46-1.82,1.73-1.97,4.82-3.24,8.3-3.16,3.65.09,6.81,1.64,8.38,3.84Z"/>
      <path class="cls-3" d="M16.49,18.86c-3.71,2.85-8.99,2.79-12.65-.3,1.67-1,3.84-1.6,6.19-1.58,2.49.02,4.76.73,6.46,1.88Z"/>
    </g>
    <text class="cls-1" transform="translate(24.21 17.96)"><tspan class="cls-5" x="0" y="0">R</tspan><tspan class="cls-14" x="13.59" y="0">e</tspan><tspan class="cls-8" x="25.31" y="0">m</tspan><tspan class="cls-10" x="43.24" y="0">o</tspan><tspan class="cls-11" x="54.73" y="0">t</tspan><tspan class="cls-7" x="62.73" y="0">e </tspan><tspan class="cls-9" x="79.32" y="0">W</tspan><tspan class="cls-4" x="97.59" y="0">o</tspan><tspan class="cls-12" x="109.56" y="0">r</tspan><tspan class="cls-13" x="117.54" y="0">l</tspan><tspan class="cls-12" x="123.25" y="0">dw</tspan><tspan class="cls-15" x="152.77" y="0">id</tspan><tspan class="cls-6" x="170.25" y="0">e</tspan></text>
  </g>
</svg>